<svg xmlns="http://www.w3.org/2000/svg" id="Layer_2" data-name="Layer 2" viewBox="0 0 1257.33 770.09"><defs><style>      .cls-1, .cls-2 {        fill: #fff;      }      .cls-2 {        stroke: #bc9c67;        stroke-miterlimit: 10;        stroke-width: .58px;      }      .cls-3 {        fill: none;      }    </style></defs><g id="Layer_1-2" data-name="Layer 1"><g><polygon class="cls-3" points="1041.18 714.45 1041.18 748.29 1066.13 748.29 1042.18 714.45 1041.18 714.45"></polygon><path class="cls-3" d="M778.84,533.03c0-3.36-.84-5.87-5.87-5.87-12.58,0-36.91,23.49-52.86,47.82,6.15-2.57,11.89-5.17,17.21-7.76,2.39-2.07,4.26-3.73,5.45-4.82l1.11,1.52c21.97-11.48,34.96-22.63,34.96-30.88Z"></path><path class="cls-2" d="M694.96,192.41c0-67.96-34.4-106.55-91.45-106.55-150.17,0-393.48,198.83-393.48,329.71,0,44.47,26.01,68.8,70.47,68.8,80.54,0,198-97.32,198-185.41,0-6.71,0-11.75-.84-21.81l-7.55,.84c1.68,7.55,2.52,11.75,2.52,15.1,0,77.18-124.17,183.73-187.09,183.73-34.4,0-52.02-15.94-52.02-46.14,0-111.58,219.81-335.59,365.79-335.59,50.34,0,77.18,25.17,77.18,74.67,0,81.38-52.02,154.37-76.35,188.77-39.43,56.21-58.73,77.19-114.94,125.01-61.24,52.02-97.32,77.18-148.5,103.19-31.04,15.1-99.84,47.82-166.95,47.82-86.41,0-129.2-36.91-129.2-112.42,0-132.56,127.52-275.18,177.86-325.52C320.78,95.09,445.78,9.52,596.8,9.52c89.77,0,136.75,36.08,136.75,103.19,0,37.75-11.75,74.67-32.72,101.52l6.71,5.03c28.52-31.88,43.63-70.47,43.63-109.9C751.17,39.72,695.79,.29,598.47,.29c-144.3,0-251.69,59.57-342.3,123.33C109.36,228.49,.29,385.38,.29,492.76c0,66.28,33.56,152.69,169.47,152.69,191.28,0,525.19-259.24,525.19-453.04Z"></path><path class="cls-1" d="M737.33,567.22c2.26-1.1,4.45-2.2,6.55-3.3l-1.11-1.52c-1.19,1.09-3.06,2.75-5.45,4.82Z"></path><path class="cls-1" d="M654.68,621.13c-5.03,0-7.55-2.52-7.55-7.55,0-4.19,5.03-11.75,16.78-27.69l21.81-29.36c5.03-7.55,9.23-15.1,9.23-23.49,0-11.75-8.39-18.46-21.81-18.46-17.62,0-43.63,19.3-81.38,49.5l-8.39,6.71,31.04-52.85h-27.69c-8.39,11.75-14.26,17.62-33.56,36.08-11.75,11.74-15.1,15.1-26.85,25.17l4.19,5.03,21.81-12.58-41.11,62.92h32.72c18.46-27.69,44.47-56.21,72.99-78.86,20.97-16.78,37.75-26.01,45.3-26.01,1.68,0,4.19,1.68,4.19,3.36,0,4.2-5.03,10.91-17.62,26.01-32.72,37.75-38.59,45.3-38.59,57.89,0,13.42,9.23,20.97,25.17,20.97,12.28,0,25.96-4.66,39.49-11.51-2.07-2.99-3.39-6.54-3.95-10.65-6.49,3.34-12.15,5.38-16.24,5.38Z"></path><path class="cls-1" d="M707.53,604.35c0,.56,.03,1.1,.05,1.63,14.35-10.41,26.67-21.02,34.41-27.82-9.23,4.79-19.82,10.12-31.95,16.12-.84,3.36-2.52,5.87-2.52,10.07Z"></path><path class="cls-1" d="M720.12,574.98c15.94-24.33,40.27-47.82,52.86-47.82,5.03,0,5.87,2.52,5.87,5.87,0,8.26-13,19.4-34.96,30.88l5.61,7.71c-1.39,1.14-3.97,3.44-7.49,6.53,50.16-26.02,60.34-36.12,60.34-51,0-9.23-7.55-12.58-18.46-12.58-25.17,0-64.6,19.3-88.93,45.3-16.78,18.46-24.33,35.24-24.33,51.18,0,1.63,.1,3.2,.3,4.69,21.67-11.14,52.71-36.65,66.41-48.52-5.32,2.59-11.07,5.19-17.21,7.76Z"></path><path class="cls-1" d="M725.99,621.13c-11.98,0-17.87-4.58-18.4-15.15-10.19,7.39-21.39,14.67-32.71,20.41,5.27,7.6,15.39,11.51,30.14,11.51,43.63,0,101.52-45.3,125.85-66.28l-6.71-9.23c-35.24,33.56-75.51,58.73-98.16,58.73Z"></path><path class="cls-1" d="M707.53,604.35c0-4.2,1.68-6.71,2.52-10.07,12.13-6,22.72-11.33,31.95-16.12,3.52-3.09,6.1-5.39,7.49-6.53l-5.61-7.71c-2.1,1.1-4.29,2.2-6.55,3.3-13.69,11.87-44.73,37.39-66.41,48.52,.56,4.11,1.88,7.66,3.95,10.65,11.32-5.74,22.53-13.02,32.71-20.41-.03-.53-.05-1.07-.05-1.63Z"></path><path class="cls-1" d="M1124.49,421.45c-26.85,27.69-103.19,79.7-144.3,99l5.87,12.58c28.52-10.07,62.08-31.04,83.06-45.3l-80.54,151.85,44.46-7.55,103.19-210.58h-11.75Z"></path><path class="cls-1" d="M1153.85,632.03l103.19-210.58h-11.75c-26.85,27.69-103.19,79.7-144.3,99l5.87,12.58c28.52-10.07,62.08-31.04,83.06-45.3l-80.54,151.85,44.46-7.55Z"></path><polygon class="cls-2" points="6.03 712.31 3.66 712.31 3.66 769.8 30.3 769.8 30.3 767.65 6.03 767.65 6.03 712.31"></polygon><path class="cls-2" d="M127.21,736.58v31.08h-22.66c-2.25,0-4.39-.45-6.43-1.34-2.04-.89-3.73-2.16-5.05-3.79-.82-1.12-1.44-2.21-1.88-3.25-.43-1.04-.75-2.09-.96-3.14-.2-1.05-.32-2.14-.34-3.29-.03-1.15-.04-2.41-.04-3.79v-36.67h-2.45v36.67c-.05,1.28-.05,2.68,0,4.21,.05,1.53,.29,3.08,.73,4.63,.43,1.56,1.12,3.06,2.07,4.52,.94,1.45,2.26,2.74,3.94,3.87,1.38,1.12,2.97,1.99,4.78,2.6,1.81,.61,3.69,.92,5.63,.92h24.72v-57.41h-2.07v24.19Z"></path><polygon class="cls-2" points="226.34 712.46 223.66 712.46 206.21 738.41 188.98 712.46 186.23 712.46 204.98 740.63 185.46 769.72 187.99 769.72 206.21 742.62 224.5 769.72 227.18 769.72 207.58 740.63 226.34 712.46"></polygon><path class="cls-2" d="M323.93,736.58v31.08h-22.66c-2.25,0-4.39-.45-6.43-1.34-2.04-.89-3.73-2.16-5.05-3.79-.82-1.12-1.44-2.21-1.88-3.25-.43-1.04-.75-2.09-.96-3.14-.2-1.05-.32-2.14-.34-3.29-.03-1.15-.04-2.41-.04-3.79v-36.67h-2.45v36.67c-.05,1.28-.05,2.68,0,4.21,.05,1.53,.29,3.08,.73,4.63,.43,1.56,1.12,3.06,2.07,4.52,.94,1.45,2.26,2.74,3.94,3.87,1.38,1.12,2.97,1.99,4.78,2.6,1.81,.61,3.69,.92,5.63,.92h24.72v-57.41h-2.07v24.19Z"></path><path class="cls-2" d="M416.52,720.88c-.74-1.33-1.62-2.51-2.64-3.56-1.02-1.04-2.09-1.87-3.21-2.49-.71-.36-1.49-.69-2.33-.99s-1.85-.56-3.02-.77c-1.17-.2-2.56-.36-4.17-.46-1.61-.1-3.51-.15-5.7-.15h-13.17v57.33h2.3v-55.34h10.87c3.37,0,6.16,.12,8.38,.35,2.22,.23,4.22,.91,6.01,2.03,2.19,1.43,3.88,3.38,5.05,5.86,1.17,2.48,1.76,4.96,1.76,7.46,0,2.3-.37,4.44-1.11,6.43-.74,1.99-2,3.96-3.79,5.9-.97,.77-1.93,1.39-2.87,1.87-.95,.49-1.91,.86-2.91,1.11-1,.26-2.07,.42-3.21,.5-1.15,.08-2.39,.11-3.71,.11h-3.6l16.84,23.73h2.99l-15.54-21.59,2.37-.15c3.06-.05,5.65-.68,7.77-1.87,2.12-1.2,3.85-2.67,5.21-4.4,1.35-1.73,2.33-3.61,2.95-5.63,.61-2.01,.92-3.92,.92-5.7v-.38c0-1.63-.22-3.24-.65-4.82-.43-1.58-1.02-3.04-1.76-4.36Z"></path><polygon class="cls-2" points="495.93 747.37 478.25 712.46 475.65 712.46 494.86 750.05 494.86 769.8 497.08 769.8 497.08 750.05 516.3 712.46 513.54 712.46 495.93 747.37"></polygon><path class="cls-2" d="M700.2,720.85c-.74-1.35-1.62-2.55-2.64-3.6-1.02-1.05-2.09-1.85-3.22-2.41-.71-.41-1.49-.77-2.33-1.07-.84-.31-1.85-.56-3.02-.77-1.17-.2-2.56-.36-4.17-.46-1.61-.1-3.51-.15-5.7-.15h-13.17v2.14h13.17c3.32,0,6.11,.1,8.38,.31,2.27,.2,4.27,.87,6.01,1.99,1.07,.72,2.04,1.58,2.91,2.6s1.58,2.12,2.14,3.29c.56,1.18,.99,2.4,1.3,3.67,.31,1.28,.46,2.53,.46,3.75,0,2.3-.37,4.43-1.11,6.39-.74,1.97-2,3.92-3.79,5.86-.97,.82-1.91,1.45-2.83,1.91-.92,.46-1.89,.82-2.91,1.07-1.02,.26-2.09,.42-3.22,.5-1.12,.08-2.37,.11-3.75,.11h-3.6l16.84,23.81h2.99l-15.46-21.66,2.3-.08c3.06-.05,5.66-.66,7.81-1.84,2.14-1.17,3.89-2.63,5.24-4.36,1.35-1.73,2.33-3.62,2.95-5.66,.61-2.04,.92-3.95,.92-5.74v-.31c-.05-1.68-.29-3.32-.73-4.9-.43-1.58-1.02-3.05-1.76-4.4Z"></path><polygon class="cls-2" points="759.79 769.72 791.25 769.72 791.25 767.73 762.09 767.73 762.09 742.01 777.32 742.01 777.32 739.87 762.09 739.87 762.09 714.53 791.25 714.53 791.25 712.54 759.79 712.54 759.79 769.72"></polygon><polygon class="cls-2" points="890.54 766.74 890.31 766.74 850.96 712.39 847.44 712.39 847.44 769.8 849.74 769.8 849.74 714.76 849.97 714.76 889.85 769.8 892.83 769.8 892.83 712.39 890.54 712.39 890.54 766.74"></polygon><polygon class="cls-2" points="948.63 714.45 964.25 714.45 964.25 769.8 966.55 769.8 966.55 714.45 982.16 714.45 982.16 712.31 948.63 712.31 948.63 714.45"></polygon><path class="cls-2" d="M1038.88,712.39v57.41h2.3v-19.52h26.41l13.86,19.52h2.83l-40.72-57.41h-4.67Zm2.3,35.9v-33.83h1l23.96,33.83h-24.95Z"></path><polygon class="cls-2" points="1144.21 712.31 1141.84 712.31 1141.84 769.8 1168.48 769.8 1168.48 767.65 1144.21 767.65 1144.21 712.31"></polygon><path class="cls-2" d="M1235.3,713.42c-1.79,.64-3.37,1.56-4.75,2.76-1.38,1.2-2.48,2.68-3.29,4.44-.82,1.76-1.22,3.76-1.22,6.01v.23c.05,2.65,.6,4.81,1.65,6.47,1.05,1.66,2.32,2.99,3.83,3.98,1.5,.99,3.1,1.76,4.78,2.3,1.68,.54,3.14,.98,4.36,1.34,1.33,.31,2.82,.72,4.48,1.23,1.66,.51,3.21,1.26,4.67,2.26,1.45,1,2.66,2.32,3.63,3.98,.97,1.66,1.45,3.76,1.45,6.32,0,1.99-.41,3.79-1.22,5.4-.82,1.61-1.88,2.99-3.18,4.13-1.3,1.15-2.81,2.04-4.52,2.68-1.71,.64-3.43,.96-5.17,.96h-14.77v1.91h14.93c2.04,0,4.03-.38,5.97-1.15,1.94-.77,3.66-1.82,5.17-3.18,1.5-1.35,2.7-2.97,3.6-4.86,.89-1.89,1.34-3.98,1.34-6.28,0-2.04-.28-3.8-.84-5.28-.56-1.48-1.28-2.76-2.14-3.83-.87-1.07-1.83-1.96-2.87-2.68-1.05-.71-2.08-1.28-3.1-1.68-1.02-.41-1.96-.71-2.83-.92-.87-.2-1.53-.36-1.99-.46-1.94-.51-3.8-1.07-5.59-1.68-1.79-.61-3.37-1.39-4.75-2.33-1.38-.94-2.48-2.13-3.29-3.56-.82-1.43-1.23-3.24-1.23-5.43,0-1.78,.33-3.42,1-4.9,.66-1.48,1.56-2.74,2.68-3.79,1.12-1.05,2.45-1.85,3.98-2.41,1.53-.56,3.16-.84,4.9-.84h16.08v-2.14h-16.08c-1.99,.05-3.88,.4-5.66,1.03Z"></path></g></g></svg>